<?xml version="1.0" standalone="no"?>
<!DOCTYPE svg PUBLIC "-//W3C//DTD SVG 20010904//EN"
 "http://www.w3.org/TR/2001/REC-SVG-20010904/DTD/svg10.dtd">
<svg version="1.0" xmlns="http://www.w3.org/2000/svg"
 width="450.000000pt" height="450.000000pt" viewBox="0 0 450.000000 450.000000"
 preserveAspectRatio="xMidYMid meet">

<g transform="translate(0.000000,450.000000) scale(0.100000,-0.100000)"
fill="#000000" stroke="none">
<path d="M2280 3699 c-250 -27 -502 -161 -657 -349 -31 -39 -58 -68 -60 -67
-1 2 -4 12 -6 23 -1 10 -6 25 -10 32 -5 6 -5 17 -2 22 3 6 3 20 0 31 -7 21 -7
20 -23 -3 -23 -32 -22 -65 2 -85 20 -17 20 -17 6 1 -19 24 -21 63 -3 77 11 9
12 5 9 -22 -2 -19 1 -40 6 -46 6 -7 8 -20 4 -28 -3 -9 -2 -13 4 -10 6 3 10 -3
10 -14 0 -12 -6 -21 -12 -21 -18 0 -92 -159 -124 -265 -46 -157 -46 -510 2
-651 57 -172 219 -317 400 -360 57 -13 103 -15 269 -10 110 4 227 9 260 11 33
3 186 10 340 16 154 6 312 17 350 25 93 18 182 63 251 126 61 56 64 56 85 -14
18 -56 4 -84 -79 -167 -64 -64 -93 -85 -177 -124 -55 -26 -116 -55 -135 -65
-50 -24 -76 -81 -61 -132 35 -116 162 -160 366 -125 183 32 348 102 508 216
221 158 366 376 316 472 -15 28 -28 37 -56 37 -15 0 -38 -22 -80 -77 -32 -43
-66 -79 -77 -81 -14 -3 -10 8 23 53 22 32 50 83 62 114 22 59 36 191 25 235
-8 33 -40 66 -64 66 -37 0 -53 -25 -72 -112 -18 -84 -81 -228 -100 -228 -21 0
-19 22 6 72 68 133 23 361 -66 333 -27 -8 -36 -28 -50 -105 -6 -36 -25 -90
-41 -121 -34 -63 -87 -131 -99 -127 -5 2 -24 26 -43 55 l-35 52 15 48 c20 62
19 315 -1 451 -64 428 -401 768 -829 837 -98 16 -235 17 -357 4z m430 -48
c105 -27 265 -102 346 -164 71 -54 177 -164 224 -232 52 -76 118 -225 140
-319 36 -151 44 -461 14 -539 -5 -14 -10 -14 -42 3 -50 27 -88 25 -117 -5 -36
-35 -33 -48 32 -134 l35 -46 -55 -51 c-63 -59 -154 -107 -242 -128 -55 -13
-225 -22 -995 -53 -114 -4 -160 -2 -213 11 -183 43 -332 179 -388 355 -18 55
-22 100 -26 261 -6 214 5 302 54 430 14 36 26 78 27 94 1 15 12 36 24 45 11 9
37 41 58 71 48 72 164 191 239 245 124 89 290 153 450 174 115 16 337 6 435
-18z m690 -1665 c0 -28 73 -157 116 -205 25 -28 68 -65 95 -82 27 -18 49 -33
49 -35 0 -9 -165 -78 -232 -98 -170 -49 -299 -55 -390 -19 -62 25 -101 100
-77 146 17 31 34 42 109 72 92 37 196 104 258 166 28 29 52 57 52 61 0 4 5 8
10 8 6 0 10 -6 10 -14z"/>
<path d="M2249 3285 c-273 -54 -484 -249 -571 -525 -20 -66 -23 -94 -23 -240
1 -155 2 -168 26 -220 37 -79 71 -115 145 -151 l65 -32 212 7 c520 18 812 35
859 51 57 20 132 84 158 135 37 73 43 119 31 262 -18 233 -73 359 -221 509
-74 74 -100 93 -190 137 -161 79 -322 101 -491 67z m459 -347 c53 -57 54 -115
6 -270 l-37 -117 -71 6 c-39 3 -75 11 -79 17 -4 6 -6 61 -4 121 4 127 23 182
83 235 41 36 73 38 102 8z m-542 -105 c-3 -32 -9 -106 -13 -165 l-6 -108 -38
0 c-21 0 -41 5 -44 10 -14 22 -18 187 -6 223 18 53 58 97 88 97 25 0 26 -1 19
-57z m244 -403 c0 -18 -118 -132 -132 -128 -13 4 -73 106 -66 113 2 2 35 4 73
6 39 1 79 6 90 10 28 11 35 11 35 -1z"/>
<path d="M1532 3153 c6 -7 16 -13 22 -13 6 0 5 4 -3 9 -11 7 -11 9 0 14 8 3 4
4 -8 4 -17 -1 -19 -4 -11 -14z"/>
<path d="M1524 3131 c20 -22 26 -25 26 -13 0 4 -10 13 -22 21 -23 14 -23 14
-4 -8z"/>
<path d="M1494 3468 l-19 -23 25 20 c14 11 27 21 29 22 2 2 0 3 -6 3 -5 0 -18
-10 -29 -22z"/>
<path d="M1268 3451 c21 -31 22 -57 2 -53 -10 3 -9 -3 4 -17 21 -23 35 -29 17
-7 -7 9 -8 17 -2 20 11 7 9 24 -7 54 -11 19 -10 22 6 22 11 0 25 -7 32 -15 6
-8 17 -13 23 -12 7 1 11 -4 9 -11 -1 -8 1 -11 6 -8 5 3 20 -6 32 -19 13 -14
28 -25 33 -25 4 0 -5 12 -22 26 -33 27 -32 40 3 54 19 8 19 9 -6 7 -15 -1 -26
-4 -25 -8 1 -4 -2 -7 -8 -8 -5 -1 -10 3 -10 8 0 5 -4 13 -8 18 -5 4 -7 3 -5
-2 2 -5 -1 -10 -7 -10 -5 0 -9 3 -8 6 1 3 -16 6 -37 6 l-39 0 17 -26z"/>
<path d="M1509 3453 c-13 -16 -12 -17 4 -4 16 13 21 21 13 21 -2 0 -10 -8 -17
-17z"/>
<path d="M393 3443 c0 -10 4 -10 11 -3 21 21 28 9 7 -13 -14 -16 -21 -34 -19
-55 1 -17 5 -29 9 -27 3 3 4 16 1 30 -4 25 14 59 27 51 4 -3 7 4 8 15 1 14 -4
18 -21 17 -12 -1 -23 -8 -23 -15z"/>
<path d="M567 3453 c-2 -5 -3 -13 -3 -19 1 -13 56 -79 56 -67 0 5 -11 20 -24
32 -14 13 -23 31 -21 42 4 19 -1 26 -8 12z"/>
<path d="M590 3455 c0 -2 6 -8 13 -14 10 -8 14 -7 14 2 0 8 -6 14 -14 14 -7 0
-13 -1 -13 -2z"/>
<path d="M1090 3455 c0 -2 6 -8 13 -14 10 -8 14 -7 14 2 0 8 -6 14 -14 14 -7
0 -13 -1 -13 -2z"/>
<path d="M1243 3422 c0 -20 2 -29 4 -19 3 10 9 14 16 10 8 -5 8 -2 0 9 -7 8
-10 17 -7 20 3 3 1 9 -4 12 -6 3 -10 -10 -9 -32z"/>
<path d="M1307 3439 c12 -12 24 -21 27 -18 2 2 -8 13 -22 23 l-27 19 22 -24z"/>
<path d="M680 3445 c0 -1 14 -14 32 -31 18 -16 27 -22 20 -13 -6 9 -8 20 -4
24 4 5 2 5 -5 1 -6 -3 -14 -2 -17 3 -4 5 2 12 11 14 10 3 6 4 -9 4 -16 -1 -28
-2 -28 -2z"/>
<path d="M743 3432 c2 -12 9 -28 17 -35 10 -10 11 -9 4 3 -5 8 -9 21 -10 28
-2 8 -5 17 -8 20 -4 3 -5 -4 -3 -16z"/>
<path d="M771 3433 c6 -7 8 -13 3 -13 -19 0 18 -24 39 -25 28 -2 31 18 7 40
-14 13 -17 13 -17 1 0 -8 3 -14 6 -13 3 1 7 -2 9 -8 1 -5 -6 -10 -15 -10 -12
0 -18 7 -17 21 1 11 -5 21 -12 21 -10 0 -11 -4 -3 -14z"/>
<path d="M841 3433 c6 -7 17 -13 23 -12 7 0 6 2 -2 6 -6 2 -10 8 -8 12 3 4 -1
8 -9 8 -11 0 -12 -4 -4 -14z"/>
<path d="M944 3439 c-4 -8 -3 -9 4 -5 15 9 16 -18 3 -43 -7 -12 -6 -18 2 -18
14 0 21 63 8 72 -5 3 -13 0 -17 -6z"/>
<path d="M1396 3441 c-3 -4 4 -17 17 -27 22 -19 22 -19 4 2 -9 11 -14 24 -10
27 3 4 4 7 0 7 -3 0 -8 -4 -11 -9z"/>
<path d="M1521 3437 c-8 -10 -7 -14 2 -14 8 0 14 6 14 14 0 7 -1 13 -2 13 -2
0 -8 -6 -14 -13z"/>
<path d="M1080 3436 c0 -2 8 -10 18 -17 15 -13 16 -12 3 4 -13 16 -21 21 -21
13z"/>
<path d="M1127 3425 c-4 -8 -3 -16 1 -19 4 -3 9 4 9 15 2 23 -3 25 -10 4z"/>
<path d="M590 3426 c0 -2 8 -10 18 -17 15 -13 16 -12 3 4 -13 16 -21 21 -21
13z"/>
<path d="M685 3371 c0 -27 6 -56 13 -64 7 -8 14 -23 17 -33 2 -11 7 -28 11
-38 6 -15 4 -17 -7 -11 -12 8 -12 6 0 -8 18 -22 20 -21 16 6 -7 43 -14 69 -25
82 -7 9 -6 16 3 24 8 6 16 9 18 6 3 -2 5 4 6 14 1 10 -11 30 -26 45 l-27 26 1
-49z m30 -31 c-20 -20 -20 -20 -20 20 0 40 0 40 20 20 19 -20 19 -20 0 -40z"/>
<path d="M923 3373 c0 -35 2 -41 13 -32 16 13 19 23 4 14 -13 -8 -13 38 0 51
7 7 6 11 -3 11 -10 0 -14 -13 -14 -44z"/>
<path d="M416 3402 c-3 -5 1 -9 9 -9 8 0 12 4 9 9 -3 4 -7 8 -9 8 -2 0 -6 -4
-9 -8z"/>
<path d="M1493 3393 c0 -9 4 -10 14 -2 7 6 13 12 13 14 0 1 -6 2 -13 2 -8 0
-14 -6 -14 -14z"/>
<path d="M563 3385 c0 -8 3 -13 5 -10 3 3 12 -1 21 -7 10 -8 9 -4 -3 10 -23
26 -23 26 -23 7z"/>
<path d="M1093 3376 c-2 -20 -1 -20 8 -3 10 18 12 18 32 0 22 -18 22 -18 4 3
-9 11 -23 21 -30 21 -7 0 -14 -10 -14 -21z"/>
<path d="M1377 3383 c3 -10 14 -27 25 -39 10 -11 16 -23 13 -26 -3 -2 1 -5 8
-5 8 0 14 6 14 14 0 7 -3 11 -5 8 -9 -9 -32 17 -25 28 3 6 1 7 -5 3 -7 -4 -12
-1 -12 8 0 8 -4 18 -10 21 -6 4 -7 -1 -3 -12z"/>
<path d="M417 3373 c10 -3 10 -10 2 -26 -9 -20 -9 -20 4 -5 8 10 18 14 23 10
4 -4 2 1 -5 11 -7 9 -19 17 -25 16 -7 0 -6 -2 1 -6z"/>
<path d="M1263 3362 c10 -10 15 -21 12 -24 -3 -2 2 -5 10 -5 12 0 10 6 -7 24
-25 27 -39 32 -15 5z"/>
<path d="M1112 3360 c2 -9 -3 -14 -11 -12 -12 3 -12 0 -1 -12 14 -18 21 -21
18 -7 -2 5 1 8 7 8 5 -1 10 -8 12 -15 3 -23 12 -25 10 -3 -1 12 -10 29 -20 39
-15 13 -18 14 -15 2z"/>
<path d="M564 3349 c-4 -7 -3 -9 4 -5 6 3 13 2 17 -4 4 -6 11 -8 16 -5 5 4 9
2 9 -3 0 -17 -13 -22 -29 -10 -9 7 -5 0 8 -15 24 -27 43 -39 22 -14 -8 10 -7
17 1 25 9 9 9 15 0 24 -7 7 -12 8 -12 4 0 -5 -6 -3 -14 3 -11 9 -16 9 -22 0z"/>
<path d="M952 3340 c-8 -14 -9 -21 0 -26 6 -4 8 -3 4 4 -3 6 -2 13 4 17 11 7
14 -28 3 -38 -3 -4 -15 0 -25 10 -29 26 -21 9 10 -20 l29 -28 -1 45 c-1 52 -7
62 -24 36z"/>
<path d="M1251 3338 c-1 -9 4 -20 9 -23 8 -5 7 -12 -2 -23 -7 -10 -8 -14 -3
-9 4 4 17 0 27 -9 15 -14 16 -20 5 -32 -10 -13 -9 -14 2 -8 9 6 12 5 10 -3 -7
-20 -24 -12 -24 11 0 12 -6 23 -13 24 -7 1 -8 0 -3 -2 5 -3 7 -13 4 -23 -3
-10 0 -22 7 -26 8 -5 8 -11 1 -19 -8 -10 -5 -18 10 -32 12 -10 24 -18 28 -16
3 1 6 -4 6 -10 0 -7 10 -14 22 -14 12 -1 20 2 18 6 -3 4 1 13 9 19 10 8 16 8
25 -2 6 -8 8 -18 4 -23 -4 -5 1 -1 12 8 10 10 20 32 21 49 2 17 0 28 -3 25 -3
-3 -7 -16 -7 -28 -1 -13 -6 -23 -11 -23 -6 0 -9 3 -8 6 1 3 -22 5 -50 4 -67
-2 -85 10 -58 39 23 24 22 47 -2 74 -13 15 -14 21 -4 32 9 10 9 11 -1 6 -7 -5
-16 1 -21 16 -7 16 -10 18 -10 6z m99 -194 c-15 -18 -27 -18 -27 -1 0 7 9 14
19 14 16 2 17 -1 8 -13z"/>
<path d="M431 3327 c-8 -10 -7 -14 2 -14 8 0 14 6 14 14 0 7 -1 13 -2 13 -2 0
-8 -6 -14 -13z"/>
<path d="M1384 3325 c1 -8 8 -21 16 -28 12 -10 12 -9 2 4 -6 9 -9 18 -6 21 3
3 1 9 -4 12 -6 3 -9 -1 -8 -9z"/>
<path d="M726 3307 c3 -10 9 -15 12 -12 3 3 0 11 -7 18 -10 9 -11 8 -5 -6z"/>
<path d="M1297 3305 c-4 -8 -3 -16 1 -19 4 -3 9 4 9 15 2 23 -3 25 -10 4z"/>
<path d="M1120 3302 c0 -6 5 -14 10 -17 8 -5 7 -12 -2 -23 -12 -15 -11 -16 5
-3 14 11 15 17 5 30 -7 9 -14 18 -15 20 -2 2 -3 -1 -3 -7z"/>
<path d="M404 3268 c1 -18 5 -39 9 -45 5 -7 5 -13 1 -13 -4 0 1 -9 10 -19 10
-11 13 -22 8 -25 -6 -3 -12 0 -15 6 -2 7 -4 1 -4 -15 0 -15 3 -29 7 -32 4 -3
6 -19 4 -36 -2 -18 -3 -30 -1 -28 1 2 9 13 17 23 10 13 10 17 3 12 -7 -4 -13
-3 -13 2 0 17 13 22 29 9 14 -11 14 -10 2 5 -7 10 -17 16 -21 13 -18 -11 -21
17 -4 36 9 10 14 19 9 19 -4 0 -2 6 4 14 8 10 9 16 1 21 -6 4 -9 3 -8 -2 2 -4
-1 -9 -7 -10 -5 -2 -10 1 -10 6 0 5 -3 13 -7 17 -4 4 -2 14 5 22 10 13 9 14
-1 8 -9 -6 -11 -1 -8 18 3 14 1 26 -4 26 -5 0 -8 -15 -6 -32z"/>
<path d="M572 3275 c0 -16 2 -22 5 -12 2 9 2 23 0 30 -3 6 -5 -1 -5 -18z"/>
<path d="M686 3279 c3 -13 6 -38 6 -56 1 -18 6 -31 12 -30 6 1 11 -7 10 -18
-1 -14 6 -21 19 -22 19 -2 19 -2 1 12 -11 8 -15 15 -10 15 5 0 2 8 -7 18 -9
10 -16 26 -16 37 1 26 -6 53 -14 61 -3 4 -4 -4 -1 -17z"/>
<path d="M1506 3290 c6 -8 10 -23 8 -33 -1 -11 0 -16 4 -13 12 13 10 36 -6 48
-15 11 -15 11 -6 -2z"/>
<path d="M749 3288 c-6 -20 -6 -39 0 -42 4 -3 7 6 7 20 0 20 -4 32 -7 22z"/>
<path d="M774 3267 c0 -17 6 -23 22 -23 13 0 21 3 18 7 -2 4 6 15 18 23 12 9
17 16 11 16 -7 0 -15 -5 -18 -10 -4 -6 -11 -8 -16 -4 -5 3 -8 1 -7 -4 2 -6 -1
-10 -7 -11 -5 -1 -10 3 -10 8 0 5 -2 12 -5 15 -4 3 -6 -5 -6 -17z"/>
<path d="M923 3275 c0 -8 3 -13 5 -10 9 9 42 -27 35 -38 -4 -6 -1 -7 6 -2 9 5
5 15 -15 36 -32 34 -31 33 -31 14z"/>
<path d="M1102 3256 c-2 -22 4 -38 18 -51 14 -13 17 -21 9 -31 -7 -8 -7 -14 1
-19 6 -4 9 -1 8 7 -2 7 4 12 12 10 9 -2 3 9 -14 27 -21 22 -27 37 -24 56 3 14
2 27 -1 30 -4 2 -8 -11 -9 -29z"/>
<path d="M593 3267 c0 -8 6 -14 14 -14 9 0 10 4 2 14 -6 7 -12 13 -14 13 -1 0
-2 -6 -2 -13z"/>
<path d="M1406 3269 c3 -5 10 -7 15 -4 5 4 9 2 9 -3 0 -17 -13 -22 -29 -10
-10 8 -9 4 3 -10 11 -12 21 -22 24 -22 3 0 2 3 -1 7 -4 3 -2 12 5 20 12 15 6
26 -17 29 -8 1 -13 -2 -9 -7z"/>
<path d="M835 3261 c-3 -5 -2 -12 3 -15 5 -3 9 1 9 9 0 17 -3 19 -12 6z"/>
<path d="M436 3244 c-4 -10 -4 -15 0 -11 4 4 16 0 26 -9 15 -14 16 -20 5 -33
-11 -14 -10 -14 6 -2 12 9 14 17 7 26 -5 6 -6 16 -2 20 4 5 2 5 -5 1 -6 -3
-16 1 -21 10 -8 15 -10 14 -16 -2z"/>
<path d="M936 3237 c3 -10 9 -15 12 -12 3 3 0 11 -7 18 -10 9 -11 8 -5 -6z"/>
<path d="M490 3232 c0 -6 5 -14 10 -17 6 -4 7 -11 4 -17 -4 -7 -2 -8 5 -4 9 6
9 12 -1 24 -7 10 -14 19 -15 21 -2 2 -3 -1 -3 -7z"/>
<path d="M516 3228 c3 -4 11 -5 19 -1 21 7 19 12 -4 10 -11 0 -18 -5 -15 -9z"/>
<path d="M562 3231 c2 -18 -3 -31 -13 -31 -5 0 -7 5 -3 12 4 7 3 8 -5 4 -12
-8 -6 -26 8 -26 5 0 16 11 24 23 12 19 13 24 2 24 -8 0 -14 -3 -13 -6z"/>
<path d="M592 3220 c-7 -12 -8 -21 -2 -25 6 -4 8 -10 5 -15 -3 -5 -1 -11 4
-14 10 -7 9 20 -2 30 -4 4 -2 13 5 21 6 7 9 15 7 18 -3 2 -10 -4 -17 -15z"/>
<path d="M1134 3222 c23 -26 23 -26 23 -7 0 8 -3 13 -5 10 -3 -3 -12 1 -21 7
-10 8 -9 4 3 -10z"/>
<path d="M1393 3204 c0 -17 2 -22 7 -13 5 6 6 18 3 26 -8 19 -10 16 -10 -13z"/>
<path d="M615 3211 c-3 -5 -2 -12 3 -15 5 -3 9 1 9 9 0 17 -3 19 -12 6z"/>
<path d="M933 3192 c0 -11 6 -20 12 -19 5 1 9 -4 8 -10 -2 -7 0 -12 5 -10 4 1
7 -2 7 -8 0 -5 -4 -9 -8 -7 -5 1 -6 -2 -2 -8 5 -8 11 -7 21 1 13 10 11 17 -13
43 -15 17 -29 33 -30 35 -1 2 -1 -6 0 -17z"/>
<path d="M950 3205 c0 -2 6 -8 13 -14 10 -8 14 -7 14 2 0 8 -6 14 -14 14 -7 0
-13 -1 -13 -2z"/>
<path d="M1103 3185 c0 -8 4 -12 9 -9 5 3 6 10 3 15 -9 13 -12 11 -12 -6z"/>
<path d="M693 3153 c1 -18 3 -30 6 -28 10 10 29 -18 24 -33 -3 -9 -3 -14 1
-10 4 3 9 14 10 25 2 10 7 16 12 15 5 -2 8 -8 6 -14 -1 -5 2 -7 7 -4 5 4 14
-2 20 -11 6 -10 11 -13 11 -6 0 6 -5 15 -10 18 -6 4 -8 11 -4 16 3 6 12 3 19
-8 7 -10 11 -22 8 -27 -4 -5 -1 -6 5 -2 9 5 7 14 -4 32 -12 17 -20 21 -29 14
-6 -5 -15 -6 -19 -2 -4 4 -17 7 -29 7 -14 0 -24 8 -28 25 -7 22 -7 22 -6 -7z"/>
<path d="M449 3153 c-8 -9 -9 -14 -2 -10 6 4 13 1 16 -5 3 -7 4 -3 4 10 -1 26
-1 26 -18 5z"/>
<path d="M584 3145 c1 -8 13 -26 27 -41 13 -14 23 -29 22 -32 -1 -4 0 -8 1 -9
1 -2 2 10 2 25 -1 26 -25 79 -26 55 0 -6 5 -15 10 -18 6 -3 10 -11 10 -17 0
-6 -9 -3 -20 7 -11 10 -17 21 -15 26 3 4 1 10 -4 13 -5 4 -8 -1 -7 -9z"/>
<path d="M934 3130 c2 -29 6 -34 29 -35 15 -1 25 0 22 3 -3 3 3 15 12 26 15
18 14 17 -8 -2 -28 -24 -41 -19 -52 23 -3 11 -4 4 -3 -15z"/>
<path d="M1104 3136 c1 -14 4 -28 7 -31 3 -3 5 6 5 19 -1 14 -4 28 -7 31 -3 3
-5 -6 -5 -19z"/>
<path d="M1153 3145 c1 -5 -3 -9 -9 -8 -6 1 -11 -5 -11 -13 0 -11 6 -9 23 7
25 24 65 20 45 -4 -8 -10 -7 -14 3 -14 15 0 16 14 3 34 -9 15 -56 13 -54 -2z"/>
<path d="M1263 3142 c2 -12 6 -24 10 -28 3 -4 4 4 2 16 -6 30 -16 40 -12 12z"/>
<path d="M1025 3142 c3 -3 -2 -13 -11 -23 -12 -14 -13 -18 -2 -25 7 -4 10 -3
5 1 -4 5 2 18 13 30 16 17 17 22 5 22 -8 0 -13 -3 -10 -5z"/>
<path d="M1431 3137 c-8 -10 -7 -14 2 -14 8 0 14 6 14 14 0 7 -1 13 -2 13 -2
0 -8 -6 -14 -13z"/>
<path d="M810 3133 c0 -6 7 -16 15 -23 8 -7 12 -17 8 -24 -4 -7 -1 -6 9 1 8 7
19 9 23 5 5 -4 5 -1 1 6 -4 7 -11 10 -16 7 -5 -3 -16 5 -24 17 -9 12 -16 17
-16 11z"/>
<path d="M836 3129 c3 -5 9 -7 14 -4 5 3 15 -4 24 -16 15 -22 15 -22 13 -1 0
11 -4 20 -7 20 -3 0 -7 1 -10 2 -19 7 -39 7 -34 -1z"/>
<path d="M1164 3118 l-19 -23 23 19 c12 11 22 21 22 23 0 8 -8 2 -26 -19z"/>
<path d="M1035 3109 c-4 -6 -4 -13 -1 -16 3 -4 6 -1 6 6 0 7 5 9 12 5 7 -4 8
-3 4 4 -9 15 -13 15 -21 1z"/>
<path d="M585 3100 c5 -8 8 -23 7 -32 -4 -24 4 -23 11 2 3 11 -2 25 -11 32
-13 11 -14 11 -7 -2z"/>
<path d="M701 3094 c0 -11 3 -14 6 -6 3 7 2 16 -1 19 -3 4 -6 -2 -5 -13z"/>
<path d="M451 3077 c-8 -11 -5 -19 12 -36 18 -16 24 -18 24 -7 0 8 -4 13 -8
11 -3 -3 -12 2 -18 9 -8 9 -8 17 -2 20 5 3 12 0 14 -6 4 -9 6 -10 6 -1 1 18
-16 24 -28 10z"/>
<path d="M748 3083 c7 -3 16 -2 19 1 4 3 -2 6 -13 5 -11 0 -14 -3 -6 -6z"/>
<path d="M433 3028 c0 -13 1 -17 4 -10 3 6 10 9 16 5 7 -4 6 1 -2 10 -17 21
-17 21 -18 -5z"/>
<path d="M1017 2998 c4 -7 6 -20 5 -28 -1 -9 7 -33 18 -55 12 -23 18 -29 14
-15 -3 14 -11 30 -16 37 -5 6 -9 20 -8 30 4 31 0 43 -11 43 -6 0 -7 -5 -2 -12z"/>
<path d="M1086 2818 c15 -20 30 -35 33 -32 3 2 -10 19 -28 37 l-34 32 29 -37z"/>
<path d="M1154 2753 c16 -18 32 -30 37 -28 4 3 10 0 12 -5 4 -7 5 -6 4 0 -2 7
-6 11 -11 10 -4 -1 -22 11 -39 27 l-32 28 29 -32z"/>
<path d="M2358 1924 c-25 -8 -68 -29 -95 -47 -26 -18 -67 -38 -90 -45 -55 -16
-149 -108 -247 -242 -80 -108 -126 -151 -193 -182 -71 -32 -50 -84 33 -80 36
1 44 -2 44 -16 0 -10 6 -27 14 -38 13 -16 18 -17 35 -7 19 12 20 11 15 -15 -4
-19 0 -32 11 -42 22 -19 42 -6 145 94 45 43 83 76 84 75 2 -2 15 -27 29 -54
14 -28 46 -74 72 -103 l46 -51 -25 -33 c-58 -76 -115 -268 -116 -385 l0 -62
43 -6 c65 -10 216 -10 281 -1 l59 8 -6 146 c-3 81 -12 170 -20 199 l-14 52 46
6 c82 11 155 38 218 81 l61 43 7 -97 c10 -161 44 -378 64 -410 18 -29 242 -41
388 -21 43 6 80 12 82 14 8 8 -50 173 -88 252 -84 174 -232 355 -317 390 -36
15 -44 22 -39 38 37 138 -16 313 -128 424 -69 68 -100 87 -176 111 -73 23
-156 25 -223 4z m96 -49 c200 -52 299 -219 247 -417 -51 -196 -152 -300 -290
-300 -35 0 -74 7 -94 17 -54 25 -114 97 -155 183 -34 71 -36 83 -37 172 0 113
17 172 73 245 41 55 131 115 172 115 14 0 52 -7 84 -15z m-310 -130 c-32 -56
-54 -141 -54 -208 l0 -49 -30 31 c-17 16 -46 36 -65 42 -19 7 -35 16 -35 20 0
23 194 228 206 217 2 -3 -8 -27 -22 -53z m-190 -363 c3 -5 -8 -22 -24 -37 -34
-32 -37 -28 -15 15 16 30 29 37 39 22z m987 -81 c83 -54 179 -176 256 -326 50
-99 100 -232 90 -241 -3 -3 -23 29 -46 71 -83 155 -159 247 -215 261 -102 25
-147 -63 -133 -264 8 -111 -7 -97 -33 30 -36 173 -46 451 -19 484 18 22 51 17
100 -15z m-599 -176 c29 -14 61 -25 70 -25 31 0 57 -136 58 -292 0 -97 4 -92
-82 -100 -39 -4 -48 7 -48 63 0 45 -37 172 -69 241 -17 36 -31 68 -31 72 0 8
39 66 45 66 2 0 27 -11 57 -25z"/>
<path d="M2303 1764 c-64 -32 -94 -129 -57 -182 24 -34 31 -26 26 27 -3 40 0
56 18 80 24 35 68 61 102 61 22 1 22 1 4 15 -25 19 -53 19 -93 -1z"/>
</g>
</svg>
